<svg xmlns="http://www.w3.org/2000/svg" width="24" height="24" viewBox="0 0 24 24"><defs><style>.a,.b{fill:#5f5982;}.a{opacity:0;}</style></defs><rect class="a" width="24" height="24"/><path class="b" d="M21.08,7a2,2,0,0,0-1.7-1H6.58L6,3.74A1,1,0,0,0,5,3H3A1,1,0,0,0,3,5H4.24L7,15.26A1,1,0,0,0,8,16h9a1,1,0,0,0,.89-.55l3.28-6.56A2,2,0,0,0,21.08,7Zm-4.7,7H8.76L7.13,8H19.38Z"/><circle class="b" cx="1.5" cy="1.5" r="1.5" transform="translate(6 18)"/><circle class="b" cx="1.5" cy="1.5" r="1.5" transform="translate(16 18)"/></svg>