<svg xmlns="http://www.w3.org/2000/svg" width="59" height="59" viewBox="0 0 59 59"><defs><style>.a,.b{fill:#5fd46d;}.a{opacity:0;}</style></defs><rect class="a" width="59" height="59"/><path class="b" d="M45.463,13.489h-7.67V9.556A6.475,6.475,0,0,0,31.4,3h-7.67A6.475,6.475,0,0,0,17.34,9.556v3.933H9.67A7.77,7.77,0,0,0,2,21.356V42.333A7.77,7.77,0,0,0,9.67,50.2H45.463a7.77,7.77,0,0,0,7.67-7.867V21.356A7.77,7.77,0,0,0,45.463,13.489ZM35.237,18.733V44.956H19.9V18.733ZM22.453,9.556a1.3,1.3,0,0,1,1.278-1.311H31.4A1.3,1.3,0,0,1,32.68,9.556v3.933H22.453ZM7.113,42.333V21.356A2.59,2.59,0,0,1,9.67,18.733h5.113V44.956H9.67A2.59,2.59,0,0,1,7.113,42.333Zm40.907,0a2.59,2.59,0,0,1-2.557,2.622H40.35V18.733h5.113a2.59,2.59,0,0,1,2.557,2.622Z" transform="translate(1.433 2.4)"/></svg>