<svg xmlns="http://www.w3.org/2000/svg" width="481.971" height="472.423" viewBox="0 0 481.971 472.423"><defs><style>.a{fill:#fff;}.b{fill:#d55c3e;}.c{fill:#fd9697;}.d{fill:#e57a80;}.e{fill:#f9c34f;}.f{fill:#00968d;}.g{fill:#171b23;}.h{fill:#89cff9;}.i{fill:#262562;}.j{fill:#ecebe4;}.k{fill:#f9f9f7;}.l{fill:#d3d2cd;}.m{fill:#7a92ce;}.n{fill:#6884bc;}.o{fill:#c64f38;}.p{fill:#11141b;}.q{fill:#030405;}.r{fill:#c44e37;}.s{fill:#cb8ede;}.t{fill:#fe7a42;}.u{fill:#ff8155;}.v{fill:#0a0c0f;}.w{fill:#db2c39;}.x{fill:#038276;}.y{fill:#585af9;}</style></defs><g transform="translate(-295.752)"><g transform="translate(482.771)"><g transform="translate(0 97.692)"><path class="a" d="M441.929,66.667h-90.9L395.206,42.4Zm-81.916-2.3h72.482L395.238,45.014Z" transform="translate(-351.029 -42.401)"/></g><g transform="translate(44.193)"><rect class="a" width="2.772" height="88.267"/></g><g transform="translate(41.623 83.074)"><rect class="b" width="6.829" height="18.767"/></g><g transform="translate(24.848 125.817)"><rect class="a" width="15.959" height="2.304" transform="matrix(0.643, -0.766, 0.766, 0.643, 0, 12.216)"/><g transform="translate(17.832 1.375)"><rect class="a" width="15.958" height="2.305" transform="translate(0 15.948) rotate(-87.99)"/></g><g transform="translate(28.676 0.361)"><rect class="a" width="2.305" height="15.957" transform="translate(0 1.293) rotate(-34.129)"/></g></g></g><g transform="translate(295.752 154.76)"><g transform="translate(330.685)"><g transform="translate(5.274)"><rect class="c" width="97.794" height="66.645" transform="translate(1.152 1.152)"/><path class="a" d="M515.77,136.12h-100.1V67.17h100.1Zm-97.793-2.3h95.489V69.474H417.977Z" transform="translate(-415.673 -67.17)"/></g><g transform="translate(15.005 10.771)"><rect class="d" width="80.064" height="48.157"/></g><g transform="translate(0 15.405)"><rect class="c" width="10.944" height="18.865"/></g></g><g transform="translate(36.059 29.954)"><rect class="c" width="268.785" height="36.69" transform="translate(1.152 1.153)"/><path class="a" d="M556.6,119.166H285.508v-39H556.6Zm-268.785-2.3H554.293V82.475H287.812Z" transform="translate(-285.508 -80.171)"/></g><g transform="translate(45.103 41.943)"><rect class="d" width="252.603" height="15.854"/></g><g transform="translate(59.454 66.059)"><rect class="c" width="54.338" height="7.935"/></g><g transform="translate(0 98.8)"><g transform="translate(49.183 19.471)"><rect class="a" width="1.834" height="122.992"/></g><g transform="translate(31.768 130.469)"><path class="e" d="M315.269,209.669H289.606l-5.96-42.99h38.5Z" transform="translate(-283.645 -166.679)"/></g><g transform="translate(0 16.497)"><g transform="translate(3.209)"><path class="f" d="M300.494,129.421c10.382,11.767,14.186,25.376,8.493,30.4s-18.725-.442-29.111-12.209-8.49-30.4-8.49-30.4S290.108,117.654,300.494,129.421Z" transform="translate(-271.25 -117.212)"/></g><g transform="translate(0 47.451)"><path class="f" d="M299.1,150.016c10.382,11.764,14.186,25.376,8.49,30.4s-18.727-.442-29.109-12.209-8.493-30.4-8.493-30.4S288.719,138.247,299.1,150.016Z" transform="translate(-269.857 -137.807)"/></g><g transform="translate(25.549 26.363)"><rect class="a" width="1.474" height="34.81" transform="translate(0 1.034) rotate(-44.562)"/></g><g transform="translate(27.64 78.129)"><rect class="a" width="1.472" height="31.822" transform="matrix(0.712, -0.702, 0.702, 0.712, 0, 1.034)"/></g></g><g transform="translate(50.108)"><g transform="translate(7.42)"><path class="f" d="M305.964,122.259c-10.386,11.767-14.186,25.379-8.493,30.4s18.727-.44,29.111-12.207,8.493-30.4,8.493-30.4S316.348,110.492,305.964,122.259Z" transform="translate(-294.826 -110.052)"/></g><g transform="translate(10.626 47.449)"><path class="f" d="M307.358,142.855c-10.386,11.767-14.19,25.376-8.495,30.4s18.727-.442,29.109-12.207,8.493-30.4,8.493-30.4S317.74,131.086,307.358,142.855Z" transform="translate(-296.218 -130.646)"/></g><g transform="translate(0.001 26.343)"><rect class="a" width="34.812" height="1.476" transform="translate(0 24.837) rotate(-45.519)"/></g><g transform="translate(0 78.105)"><rect class="a" width="31.822" height="1.476" transform="translate(0 22.705) rotate(-45.519)"/></g></g><g transform="translate(33.412 142.321)"><path class="g" d="M284.359,171.823l.814,5.881h33.2l.943-5.881Z" transform="translate(-284.359 -171.823)"/></g><g transform="translate(50.098 166.295)"><rect class="g" width="40.923" height="9.779"/></g><g transform="translate(47.498 151.963)"><rect class="h" width="32.141" height="8.486"/></g><g transform="translate(59.103 160.449)"><rect class="i" width="28.793" height="5.845"/></g><g transform="translate(50.098 153.958)"><rect class="a" width="29.54" height="4.682"/></g><g transform="translate(61.767 161.805)"><rect class="a" width="26.129" height="3.291"/></g><g transform="translate(53.285 169.652)"><rect class="a" width="37.737" height="3.807"/></g></g><g transform="translate(130.451 52.938)"><rect class="j" width="281.758" height="192.378"/><rect class="k" width="262.919" height="16.965" transform="translate(6.586 5.713)"/><rect class="k" width="99.891" height="153.071" transform="translate(10.363 31.157)"/><rect class="l" width="78.217" height="44.47" transform="translate(18.839 130.42)"/><rect class="l" width="78.217" height="6.284" transform="translate(18.839 42.778)"/><rect class="l" width="78.217" height="6.276" transform="translate(18.839 56.919)"/><rect class="l" width="78.217" height="6.283" transform="translate(18.839 73.878)"/><rect class="l" width="78.217" height="6.283" transform="translate(18.839 88.011)"/><rect class="l" width="130.979" height="7.539" transform="translate(138.526 31.157)"/><rect class="l" width="130.979" height="7.542" transform="translate(138.526 45.29)"/><rect class="l" width="130.979" height="7.539" transform="translate(138.526 62.255)"/><rect class="k" width="130.979" height="99.636" transform="translate(138.526 80.161)"/><rect class="l" width="111.191" height="44.831" transform="translate(149.834 91.156)"/><rect class="l" width="142.763" height="8.011" transform="translate(10.363 9.954)"/><rect class="l" width="56.533" height="8.011" transform="translate(207.792 9.954)"/></g><g transform="translate(223.443 207.451)"><rect class="m" width="208.613" height="27.346"/><rect class="n" width="106.024" height="27.346" transform="translate(102.589)"/><rect class="j" width="202.745" height="18.939" transform="translate(5.868 4.204)"/><rect class="l" width="106.024" height="18.939" transform="translate(102.589 4.204)"/><rect class="n" width="26.437" height="4.204" transform="translate(190.746)"/><rect class="n" width="26.437" height="4.203" transform="translate(190.746 23.143)"/></g><g transform="translate(242.878 167.464)"><rect class="b" width="162.522" height="39.987"/><rect class="o" width="82.593" height="39.987" transform="translate(79.929)"/><rect class="j" width="157.943" height="27.681" transform="translate(4.579 6.154)"/><rect class="l" width="82.593" height="27.681" transform="translate(79.929 6.154)"/><rect class="o" width="20.603" height="6.154" transform="translate(148.597)"/><rect class="o" width="20.603" height="6.153" transform="translate(148.597 33.834)"/></g><g transform="translate(212.148 234.781)"><rect class="p" width="242.123" height="44.336"/><rect class="q" width="123.048" height="44.336" transform="translate(119.075)"/><rect class="j" width="235.294" height="30.684" transform="translate(6.829 6.825)"/><rect class="l" width="123.048" height="30.684" transform="translate(119.075 6.825)"/><rect class="q" width="30.692" height="6.825" transform="translate(221.38)"/><rect class="q" width="30.692" height="6.827" transform="translate(221.38 37.51)"/></g><g transform="translate(29.255 148.65)"><path class="r" d="M402.089,203.618s-66.814-48.135-70.376-47.423-26.3,61.717-26.3,61.717h13.5l18.831-33.286,28.8,33.286Z" transform="translate(-252.741 -99.742)"/><path class="b" d="M457,180.547s2.843,22.743-23.457,21.326l-79.6-3.17-66.1,6.718V192.987l72.841-12.439S431.4,172.018,457,180.547Z" transform="translate(-275.67 -72.918)"/><path class="p" d="M294.72,191.5s-4.267-.535-6.4-8.262-6.4-6.483-5.686,0-1.419,22.828,3.557,20.7a9.794,9.794,0,0,1,8.529,0Z" transform="translate(-282.555 -71.432)"/><g transform="translate(134.507)"><g transform="translate(0 18.018)"><path class="s" d="M340.935,226.444l51.563,5.623,3.217-38.116,17.206-35.206-20.95-12.266-35.377-6.971L348.085,191.3Z" transform="translate(-340.935 -139.508)"/></g><g transform="translate(1.654 81.495)"><path class="t" d="M349.056,170.317s-5.91,1.113-6.843.092c-.783-.857-2.115-5.126,6.977-2.514Z" transform="translate(-341.652 -167.059)"/></g><g transform="translate(7.841 33.389)"><path class="g" d="M402.323,146.18l6.19,3.717-17.3,45.225-46.87,3.145.646-3.274,37.273-9.216Z" transform="translate(-344.338 -146.18)"/></g><g transform="translate(38.402)"><g transform="translate(0 14.05)"><path class="t" d="M361.088,137.786l-3.486,9.7s11.508,9.85,10.73,4.783c-.74-4.707-.615-13.918-.615-13.918Z" transform="translate(-357.602 -137.786)"/></g><g transform="translate(2.21 0.692)"><path class="u" d="M360.81,133.909c-.986,1.961-2.928,5.778-2.007,8.552s2.226,7.7,5.191,9.11,4.993-1.159,5.587-2.345c.952-1.905,2.541-12.925-2.143-16.036C363.9,130.833,361.551,132.418,360.81,133.909Z" transform="translate(-358.561 -131.988)"/></g><g transform="translate(1.595)"><path class="g" d="M369.586,135.775a6.138,6.138,0,0,1-5.679.832c-3.329-1.129-3.182,2.267-3.212,2.636s.145,5.219-1.032,5.193c-1.193-.025-2.269-6.131-.2-10A5.533,5.533,0,0,1,369.586,135.775Z" transform="translate(-358.294 -131.688)"/></g><g transform="translate(3.59 13.253)"><path class="g" d="M359.16,138.755s3.163,3.629,6.755,3.488c2.269-.078,3.755-3.9,3.822-4.744s.447,7.546-4.53,7.414C360.247,144.773,359.16,138.755,359.16,138.755Z" transform="translate(-359.16 -137.44)"/></g></g><g transform="translate(44.901 18.994)"><path class="t" d="M360.423,147.66s3.76-7.55,5.7-7.721c1.624-.152,7.532,1.979-3.106,9.933Z" transform="translate(-360.423 -139.932)"/></g><g transform="translate(6.154 17.795)"><path class="g" d="M343.605,158.151l8.363-18.739,3.658,1.019,1.276,34.812,25.668-29.275,4.507,3.411-35.993,47.949Z" transform="translate(-343.605 -139.412)"/></g><g transform="translate(35.678 65.982)"><path class="v" d="M370.05,160.326l-3.548,7-10.082,2.491,11.529,1.154Z" transform="translate(-356.42 -160.326)"/></g><g transform="translate(18.216 42.795)"><path class="v" d="M350.076,161.094l6.43-7.335-7.666,13.571.835-17.067Z" transform="translate(-348.841 -150.262)"/></g></g></g><g transform="translate(366.326 52.836)"><g transform="translate(0 27.104)"><g transform="translate(6.861)"><path class="t" d="M488.231,115.3l-16.888,26.943-39.511-15.711,1.177-3.373,32.265,7.329,16.3-23.13s4.857-8.218,10.08-4.541A27.76,27.76,0,0,1,488.231,115.3Z" transform="translate(-431.831 -101.866)"/></g><g transform="translate(0 18.034)"><path class="t" d="M437.566,113.469s-5.566-4.292-7.083-3.723c-1.281.482-4.935,4.223,5.94,6.327Z" transform="translate(-428.853 -109.693)"/></g></g><g transform="translate(46.949 35.226)"><g transform="translate(6.851)"><path class="t" d="M508.611,118.823l-16.888,26.941L452.2,130.048l1.187-3.364,32.263,7.322,16.289-23.128s4.871-8.221,10.087-4.539A27.752,27.752,0,0,1,508.611,118.823Z" transform="translate(-452.204 -105.391)"/></g><g transform="translate(0 18.031)"><path class="t" d="M457.95,117s-5.576-4.3-7.094-3.728c-1.272.479-4.931,4.226,5.935,6.329Z" transform="translate(-449.23 -113.217)"/></g></g><g transform="translate(88.556 220.846)"><path class="w" d="M477.061,185.956l-2.273.187-.4,3.48-.812,1.53-6.286,5.12,11.329-3.683Z" transform="translate(-467.289 -185.956)"/></g><g transform="translate(104 214.757)"><path class="w" d="M476.444,183.313l-1.784,1.414,1.584,3.114.167,1.73-2.419,7.738,7.42-9.33Z" transform="translate(-473.992 -183.313)"/></g><g transform="translate(82.915 95.574)"><path class="x" d="M491.28,131.584,484.9,201.775l-2.282,57.886h-5.472L471.674,199.5l-6.833-67.914Z" transform="translate(-464.841 -131.584)"/></g><g transform="translate(59.216 95.574)"><path class="f" d="M454.555,131.584l1.82,64.038,42.847,58.571,5.472-2.738L475.07,198.588l10.471-63.358v-3.646Z" transform="translate(-454.555 -131.584)"/></g><g transform="translate(59.216 21.356)"><path class="e" d="M504.694,173.589H454.555l5.472-35.094V103.383L480,99.372l24.7,2.271v71.946Z" transform="translate(-454.555 -99.372)"/></g><g transform="translate(53.07 25.369)"><path class="g" d="M465.573,101.295s8.165,4.649-5.562,19.526l-8.124-8.778S457.993,99.466,465.573,101.295Z" transform="translate(-451.887 -101.113)"/></g><g transform="translate(103.062 23.495)"><path class="g" d="M478.43,100.316s9.315-1.288,7.5,18.872l-11.792-2.007S471.306,103.491,478.43,100.316Z" transform="translate(-473.585 -100.3)"/></g><g transform="translate(77.402)"><g transform="translate(4.354 12.667)"><path class="t" d="M471.43,106.429c.111,1.765-6.988,1.765-7.059,0a36,36,0,0,1,.682-8.889L470.3,95.6S471.213,102.729,471.43,106.429Z" transform="translate(-464.338 -95.6)"/></g><g transform="translate(0.005 1.418)"><path class="t" d="M468.433,106.756c-.484.044-4.905.8-5.589-1.369s-.454-10.138.571-12.08,4.438-3.076,6.039-2.389,5.905,5.262,3.525,13.117C472.979,104.035,471.037,106.494,468.433,106.756Z" transform="translate(-462.45 -90.718)"/></g><path class="g" d="M462.448,94.111s.4,2.737,2.336,2.509,5.244-.8,5.583.682-1.048,6.509,0,7.753,3.649,2.735,4.216.908,1.707-13.1-4.216-15.725C470.367,90.238,464.459,88.984,462.448,94.111Z" transform="translate(-462.448 -90.102)"/></g></g><g transform="translate(175.981 299.848)"><g transform="translate(0 7.447)"><path class="y" d="M346.238,201.045h0Z" transform="translate(-346.238 -199.893)"/><rect class="a" width="142.951" height="2.304" transform="translate(0.001)"/></g><g transform="translate(6.337)"><rect class="c" width="13.019" height="17.815"/></g><g transform="translate(37.877 3.207)"><rect class="c" width="52.763" height="14.608"/></g></g></g></g></svg>