<svg xmlns="http://www.w3.org/2000/svg" width="32" height="32" viewBox="0 0 32 32"><defs><style>.a{fill:#cac6d4;}</style></defs><path class="a" d="M150.715,137.679a3.154,3.154,0,0,0-1.807-1.807,5.269,5.269,0,0,0-1.768-.328c-1-.046-1.306-.056-3.848-.056s-2.844.01-3.848.055a5.273,5.273,0,0,0-1.768.328,3.155,3.155,0,0,0-1.808,1.807,5.271,5.271,0,0,0-.328,1.768c-.046,1-.056,1.305-.056,3.848s.01,2.844.056,3.848a5.27,5.27,0,0,0,.328,1.768,3.154,3.154,0,0,0,1.807,1.807,5.262,5.262,0,0,0,1.768.328c1,.046,1.305.055,3.848.055s2.844-.01,3.848-.055a5.262,5.262,0,0,0,1.768-.328,3.154,3.154,0,0,0,1.807-1.807,5.274,5.274,0,0,0,.328-1.768c.046-1,.055-1.306.055-3.848s-.01-2.844-.055-3.848A5.262,5.262,0,0,0,150.715,137.679Zm-7.424,10.506a4.89,4.89,0,1,1,4.89-4.89A4.89,4.89,0,0,1,143.292,148.185Zm5.083-8.831a1.143,1.143,0,1,1,1.143-1.143A1.143,1.143,0,0,1,148.375,139.355Zm0,0" transform="translate(-127.292 -127.295)"/><path class="a" d="M213.349,210.174A3.174,3.174,0,1,1,210.174,207,3.174,3.174,0,0,1,213.349,210.174Zm0,0" transform="translate(-194.174 -194.174)"/><path class="a" d="M29.692,0H2.308A2.308,2.308,0,0,0,0,2.308V29.692A2.308,2.308,0,0,0,2.308,32H29.692A2.308,2.308,0,0,0,32,29.692V2.308A2.308,2.308,0,0,0,29.692,0Zm-4.56,19.788a6.741,6.741,0,0,1-.427,2.23,4.7,4.7,0,0,1-2.687,2.687,6.745,6.745,0,0,1-2.23.427c-.98.045-1.293.055-3.788.055s-2.808-.011-3.788-.055a6.745,6.745,0,0,1-2.23-.427A4.7,4.7,0,0,1,7.3,22.018a6.739,6.739,0,0,1-.427-2.23c-.045-.98-.056-1.293-.056-3.788s.01-2.808.055-3.788a6.741,6.741,0,0,1,.427-2.23A4.7,4.7,0,0,1,9.982,7.295a6.747,6.747,0,0,1,2.23-.427c.98-.045,1.293-.055,3.788-.055s2.808.011,3.788.056a6.748,6.748,0,0,1,2.23.427,4.7,4.7,0,0,1,2.687,2.687,6.74,6.74,0,0,1,.427,2.23c.045.98.055,1.293.055,3.788S25.177,18.808,25.132,19.788Zm0,0"/></svg>