<svg xmlns="http://www.w3.org/2000/svg" width="60" height="60" viewBox="0 0 60 60"><defs><style>.a,.b{fill:#5444a5;}.a{opacity:0;}</style></defs><rect class="a" width="60" height="60"/><path class="b" d="M48.333,30.147H37.507L43.64,23.56a2.667,2.667,0,0,0,0-3.76L32.467,9.507a2.48,2.48,0,0,0-1.893-.693,2.667,2.667,0,0,0-1.867.827l-4.853,5.333V5.667A2.667,2.667,0,0,0,21.187,3H5.667A2.667,2.667,0,0,0,3,5.667V40.573A10.427,10.427,0,0,0,13.427,51H48.333A2.667,2.667,0,0,0,51,48.333V32.813A2.667,2.667,0,0,0,48.333,30.147ZM30.787,15.24l7.12,6.64L23.853,36.973V22.68ZM18.52,21.667v8H8.333v-8Zm0-13.333v8H8.333v-8ZM8.333,40.573V35H18.52v5.573a5.093,5.093,0,1,1-10.187,0Zm37.333,5.093H23.027L32.52,35.48H45.667Z" transform="translate(3 3)"/></svg>