<svg xmlns="http://www.w3.org/2000/svg" width="60" height="60" viewBox="0 0 60 60"><defs><style>.a,.b{fill:#5444a5;}.a{opacity:0;}</style></defs><rect class="a" width="60" height="60"/><path class="b" d="M20.039,8.738a1.992,1.992,0,1,0-3.1,2.5,7.945,7.945,0,0,1,0,9.415,1.992,1.992,0,0,0,3.1,2.5,11.918,11.918,0,0,0,0-14.42Z" transform="translate(25.841 14.051)"/><path class="b" d="M21.259,5.655a1.617,1.617,0,0,0-2.8.369,3.733,3.733,0,0,0,.258,4c3.226,3.562,5.154,9.016,5.244,14.84-.09,5.824-2.017,11.278-5.244,14.84a3.342,3.342,0,0,0-.71,1.924,3.713,3.713,0,0,0,.452,2.077,1.827,1.827,0,0,0,1.529,1.021,1.673,1.673,0,0,0,1.271-.653c4.146-4.63,6.6-11.693,6.674-19.21-.074-7.516-2.528-14.58-6.674-19.21Z" transform="translate(29.875 5.136)"/><path class="b" d="M28.3,3.341a1.568,1.568,0,0,0-1.986,0L13.438,15.124H3.506c-1.1,0-1.986,1.185-1.986,2.648V35.936c0,1.462.889,2.648,1.986,2.648h9.931L26.17,50.234a1.751,1.751,0,0,0,1.132.45c1.1,0,1.986-1.185,1.986-2.648V5.671a2.912,2.912,0,0,0-.993-2.33Zm-2.92,39.718-10.19-9.32a1.654,1.654,0,0,0-1.132-.45h-8.6V20.419h8.6a1.654,1.654,0,0,0,1.132-.45L25.316,10.7Z" transform="translate(1.705 3.151)"/></svg>