<svg xmlns="http://www.w3.org/2000/svg" width="28" height="28" viewBox="0 0 28 28"><defs><style>.a,.b{fill:#777;}.a{opacity:0;}</style></defs><path class="a" d="M0,0H28V28H0"/><path class="b" d="M20.084,16a6.428,6.428,0,0,1-5.25,4.585,7.175,7.175,0,0,1-8.167-6.358,7,7,0,0,1,7-7.56,7.14,7.14,0,0,1,2.648.513.583.583,0,0,0,.747-.245l1.68-3.092a.607.607,0,0,0-.268-.817A11.667,11.667,0,0,0,2,14.007,11.807,11.807,0,0,0,13.166,25.335a11.667,11.667,0,0,0,12.168-11.06V11.942a.6.6,0,0,0-.583-.583h-10.5a.583.583,0,0,0-.583.583v3.5a.583.583,0,0,0,.583.583h5.833" transform="translate(0.333 0.332)"/></svg>