<svg xmlns="http://www.w3.org/2000/svg" width="28" height="28" viewBox="0 0 28 28"><defs><style>.a,.b{fill:#777;}.a{opacity:0;}</style></defs><g transform="translate(-0.183 -0.183)"><rect class="a" width="28" height="28" transform="translate(28.183 28.183) rotate(180)"/><path class="b" d="M19,3.592A.591.591,0,0,0,18.41,3H15.455A5.638,5.638,0,0,0,9.546,8.32v3.191H6.591A.591.591,0,0,0,6,12.1v3.073a.591.591,0,0,0,.591.591H9.546v7.919a.591.591,0,0,0,.591.591h3.546a.591.591,0,0,0,.591-.591V15.765h3.1a.591.591,0,0,0,.579-.437l.851-3.073a.591.591,0,0,0-.567-.745H14.273V8.32a1.182,1.182,0,0,1,1.182-1.064H18.41A.591.591,0,0,0,19,6.665Z" transform="translate(1.091 0.545)"/></g></svg>