<svg xmlns="http://www.w3.org/2000/svg" width="54" height="54" viewBox="0 0 54 54"><defs><style>.a,.b{fill:#ef8543;}.a{opacity:0;}</style></defs><g transform="translate(0 0)"><g transform="translate(0 0)"><rect class="a" width="54" height="54"/><path class="b" d="M44.84,3H9.56A7.826,7.826,0,0,0,2,11.067V32.578a7.826,7.826,0,0,0,7.56,8.067H24.68v5.378H14.6a2.695,2.695,0,0,0,0,5.378H39.8a2.695,2.695,0,0,0,0-5.378H29.72V40.644H44.84a7.826,7.826,0,0,0,7.56-8.067V11.067A7.826,7.826,0,0,0,44.84,3Zm2.52,29.578a2.609,2.609,0,0,1-2.52,2.689H9.56a2.609,2.609,0,0,1-2.52-2.689V11.067A2.609,2.609,0,0,1,9.56,8.378H44.84a2.609,2.609,0,0,1,2.52,2.689Z" transform="translate(-0.2 -0.2)"/></g></g></svg>