<svg xmlns="http://www.w3.org/2000/svg" width="28" height="28" viewBox="0 0 28 28"><defs><style>.a,.b{fill:#777;}.a{opacity:0;}</style></defs><rect class="a" width="28" height="28" transform="translate(28 28) rotate(180)"/><path class="b" d="M16.125,8.4A6.8,6.8,0,0,0,9.3,15.19v6.86a1.05,1.05,0,0,0,1.05,1.05H12.8a1.05,1.05,0,0,0,1.05-1.05V15.19a2.263,2.263,0,0,1,2.508-2.252A2.333,2.333,0,0,1,18.4,15.272V22.05a1.05,1.05,0,0,0,1.05,1.05H21.9a1.05,1.05,0,0,0,1.05-1.05V15.19A6.8,6.8,0,0,0,16.125,8.4Z" transform="translate(1.55 1.4)"/><rect class="b" width="5.25" height="13.65" rx="0.9" transform="translate(3.5 10.85)"/><circle class="b" cx="2.625" cy="2.625" r="2.625" transform="translate(3.5 3.5)"/></svg>