<svg xmlns="http://www.w3.org/2000/svg" width="53" height="53" viewBox="0 0 53 53"><defs><style>.a,.b{fill:#18afed;}.a{opacity:0;}</style></defs><rect class="a" width="53" height="53"/><path class="b" d="M43.083,13.3h-7.25V9.435A6.248,6.248,0,0,0,29.792,3h-7.25A6.248,6.248,0,0,0,16.5,9.435V13.3H9.25A7.5,7.5,0,0,0,2,21.019V41.611a7.5,7.5,0,0,0,7.25,7.722H43.083a7.5,7.5,0,0,0,7.25-7.722V21.019A7.5,7.5,0,0,0,43.083,13.3ZM21.333,9.435a1.25,1.25,0,0,1,1.208-1.287h7.25A1.25,1.25,0,0,1,31,9.435V13.3H21.333ZM45.5,41.611a2.5,2.5,0,0,1-2.417,2.574H9.25a2.5,2.5,0,0,1-2.417-2.574V21.019A2.5,2.5,0,0,1,9.25,18.444H43.083A2.5,2.5,0,0,1,45.5,21.019Z" transform="translate(-0.167 -0.167)"/><path class="b" d="M12,10.5A3.5,3.5,0,1,0,15.5,14,3.5,3.5,0,0,0,12,10.5Zm0,5A1.5,1.5,0,1,1,13.5,14,1.5,1.5,0,0,1,12,15.5Z" transform="translate(13.985 17.318)"/></svg>