<svg xmlns="http://www.w3.org/2000/svg" width="28" height="28" viewBox="0 0 28 28"><defs><style>.a,.b{fill:#777;}.a{opacity:0;}</style></defs><path class="a" d="M0,0H28V28H0"/><path class="b" d="M8.926,22.666A12.915,12.915,0,0,0,22.273,9.833,9.438,9.438,0,0,0,24,6.519a.513.513,0,0,0-.723-.595,2.193,2.193,0,0,1-2.52-.443,4.538,4.538,0,0,0-6.51-.2A4.818,4.818,0,0,0,12.9,9.833C9,10.066,6.313,8.211,4.166,5.668a.5.5,0,0,0-.875.28A11.293,11.293,0,0,0,8.658,17.673a7.852,7.852,0,0,1-5.215,2.66.525.525,0,0,0-.163.98,12.833,12.833,0,0,0,5.647,1.353" transform="translate(0.501 0.667)"/></svg>