<svg xmlns="http://www.w3.org/2000/svg" width="32" height="32" viewBox="0 0 32 32"><defs><style>.a{fill:#cac6d4;}</style></defs><path class="a" d="M29.692,0H2.308A2.308,2.308,0,0,0,0,2.308V29.692A2.308,2.308,0,0,0,2.308,32H29.692A2.308,2.308,0,0,0,32,29.692V2.308A2.308,2.308,0,0,0,29.692,0ZM11.351,24.188h-3.9V12.464h3.9ZM9.4,10.863H9.377a2.031,2.031,0,1,1,.051-4.051A2.032,2.032,0,1,1,9.4,10.863Zm16,13.324h-3.9V17.916c0-1.576-.564-2.651-1.974-2.651a2.133,2.133,0,0,0-2,1.425,2.668,2.668,0,0,0-.128.951v6.547h-3.9s.051-10.624,0-11.723h3.9v1.66a3.869,3.869,0,0,1,3.512-1.935c2.564,0,4.486,1.676,4.486,5.276Zm0,0"/></svg>