<svg xmlns="http://www.w3.org/2000/svg" width="45.6" height="48" viewBox="0 0 45.6 48"><defs><style>.a{fill:#18afed;}</style></defs><path class="a" d="M45.6,4.219A4.122,4.122,0,0,0,41.592,0H4.008A4.122,4.122,0,0,0,0,4.219V32.531A4.122,4.122,0,0,0,4.008,36.75H16.031V39.7a6.964,6.964,0,0,0-5.344,6.89A1.372,1.372,0,0,0,12.023,48H33.59c6.624-.008,12.01-5.682,12.01-12.656a13.367,13.367,0,0,0-.12-1.786,4.428,4.428,0,0,0,.12-1.027ZM4.008,33.938a1.374,1.374,0,0,1-1.336-1.406V31.116H22.241a13.2,13.2,0,0,0-.613,2.822Zm18.233,5.625H18.7V36.75h2.925A13.113,13.113,0,0,0,22.241,39.563Zm-8.653,5.625a4.034,4.034,0,0,1,3.779-2.812h6.217a12.547,12.547,0,0,0,2.444,2.813Zm19.988,0a9.618,9.618,0,0,1-9.352-9.844A9.618,9.618,0,0,1,33.577,25.5a9.618,9.618,0,0,1,9.352,9.844A9.618,9.618,0,0,1,33.577,45.188ZM42.928,27.4a11.664,11.664,0,0,0-19.344.914H2.672V4.219A1.374,1.374,0,0,1,4.008,2.813H41.592a1.374,1.374,0,0,1,1.336,1.406Z"/><g transform="translate(4.522 6.054)"><path class="a" d="M75.611,63.991c-.127-.075.785.476-6.746-4.09a1.356,1.356,0,0,0-1.4,0l-6.788,4.089A1.362,1.362,0,0,0,60,65.16v8.2a1.356,1.356,0,0,0,.644,1.154L67.427,78.7a1.356,1.356,0,0,0,1.426,0l6.782-4.189a1.357,1.357,0,0,0,.644-1.154v-8.2A1.369,1.369,0,0,0,75.611,63.991ZM66.783,75.114,62.714,72.6V67.565l4.069,2.459Zm1.356-7.441-4.156-2.512,4.177-2.516L72.3,65.158ZM73.566,72.6,69.5,75.114v-5.09l4.069-2.459Z" transform="translate(-60.001 -59.705)"/></g><g transform="translate(30.142 7.947)"><path class="a" d="M339.53,91h-6.024a1.506,1.506,0,1,0,0,3.012h6.024a1.506,1.506,0,1,0,0-3.012Z" transform="translate(-332 -91)"/></g><g transform="translate(30.142 13.845)"><path class="a" d="M339.53,151h-6.024a1.506,1.506,0,1,0,0,3.012h6.024a1.506,1.506,0,1,0,0-3.012Z" transform="translate(-332 -151)"/></g><g transform="translate(30.142 35.542)"><path class="a" d="M336.518,332A4.523,4.523,0,0,0,332,336.518s0,.005,0,.008v.026c0,.009,0,.017,0,.026A4.518,4.518,0,1,0,336.518,332Zm0,6.024a1.508,1.508,0,0,1-1.506-1.5v-.006a1.506,1.506,0,1,1,1.506,1.508Z" transform="translate(-332 -332)"/></g></svg>