<svg xmlns="http://www.w3.org/2000/svg" width="31.997" height="31.997" viewBox="0 0 31.997 31.997"><defs><style>.a{fill:#cac6d4;}</style></defs><path class="a" d="M173.982,257.667a1.667,1.667,0,1,0-1.667,1.667A1.67,1.67,0,0,0,173.982,257.667Zm0,0" transform="translate(-159.984 -240.001)"/><path class="a" d="M198.114,341.439a6.244,6.244,0,0,1-6.693,0,.432.432,0,0,0-.611.611c1.136,1.136,3.318,1.225,3.957,1.225s2.819-.09,3.958-1.225a.437.437,0,0,0,0-.611A.431.431,0,0,0,198.114,341.439Zm0,0" transform="translate(-178.765 -319.981)"/><path class="a" d="M289.667,256a1.667,1.667,0,1,0,1.667,1.667A1.67,1.67,0,0,0,289.667,256Zm0,0" transform="translate(-270.001 -240.001)"/><path class="a" d="M29.69,0H2.308A2.308,2.308,0,0,0,0,2.308V29.69A2.308,2.308,0,0,0,2.308,32H29.69A2.308,2.308,0,0,0,32,29.69V2.308A2.308,2.308,0,0,0,29.69,0ZM25.281,18.133a4.642,4.642,0,0,1,.054.7c0,3.59-4.179,6.5-9.334,6.5s-9.334-2.909-9.334-6.5a4.694,4.694,0,0,1,.054-.707,2.332,2.332,0,1,1,2.566-3.811,11.44,11.44,0,0,1,6.352-1.978c0-.032,1.165-5.58,1.165-5.58a.411.411,0,0,1,.179-.262.416.416,0,0,1,.314-.058l3.878.825a1.667,1.667,0,1,1-.17.816L17.534,7.34l-1.062,5a11.414,11.414,0,0,1,6.239,1.981A2.331,2.331,0,0,1,26.663,16,2.343,2.343,0,0,1,25.281,18.133Zm0,0"/></svg>