<svg xmlns="http://www.w3.org/2000/svg" width="96" height="70" viewBox="0 0 96 70"><defs><style>.a{fill:#f56962;}.b,.c{fill:#fff;}.b{opacity:0;}</style></defs><g transform="translate(31.465 17.465)"><path class="a" d="M0,0H91a5,5,0,0,1,5,5V65a5,5,0,0,1-5,5H0a0,0,0,0,1,0,0V0A0,0,0,0,1,0,0Z" transform="translate(-31.465 -17.465)"/><rect class="b" width="36" height="36" transform="translate(-0.465 -0.465)"/><path class="c" d="M28.879,26.8,23.911,21.85a11.573,11.573,0,0,0,2.47-7.16A11.69,11.69,0,1,0,14.69,26.38a11.573,11.573,0,0,0,7.16-2.47L26.8,28.879A1.467,1.467,0,1,0,28.879,26.8ZM5.923,14.69a8.768,8.768,0,1,1,8.768,8.768A8.768,8.768,0,0,1,5.923,14.69Z" transform="translate(1.384 1.384)"/></g></svg>