<svg xmlns="http://www.w3.org/2000/svg" width="24" height="24" viewBox="0 0 24 24"><defs><style>.a,.b{fill:#f3b23a;}.a{opacity:0;}</style></defs><rect class="a" width="24" height="24" transform="translate(24) rotate(90)"/><path class="b" d="M17.56,21a1,1,0,0,1-.46-.11L12,18.22,6.9,20.89a1,1,0,0,1-1.45-1.06l1-5.63-4.12-4a.985.985,0,0,1,.56-1.68l5.7-.83L11.1,2.56a1,1,0,0,1,1.8,0l2.54,5.12,5.7.83a.985.985,0,0,1,.56,1.68l-4.12,4,1,5.63A.99.99,0,0,1,17.56,21ZM12,16.1a.92.92,0,0,1,.46.11l3.77,2L15.51,14a1,1,0,0,1,.29-.89l3-2.93-4.2-.62A1,1,0,0,1,13.89,9L12,5.25,10.11,9a1,1,0,0,1-.75.54l-4.2.62,3,2.93a1,1,0,0,1,.29.89l-.72,4.16,3.77-2a.92.92,0,0,1,.5-.04Z"/></svg>