<svg xmlns="http://www.w3.org/2000/svg" width="31.621" height="31.621" viewBox="0 0 31.621 31.621"><defs><style>.a{fill:#3a405e;}</style></defs><path class="a" d="M14.874,10.694l-.611-5.9H16.37a1.2,1.2,0,0,0,1.2-1.2V1.2A1.2,1.2,0,0,0,16.37,0H2.795A1.2,1.2,0,0,0,1.6,1.2v2.4a1.2,1.2,0,0,0,1.2,1.2H4.9l-.611,5.9C1.87,11.82,0,13.838,0,16.37a1.2,1.2,0,0,0,1.2,1.2H7.985v5.191a.4.4,0,0,0,.042.179l1.2,2.4a.4.4,0,0,0,.714,0l1.2-2.4a.4.4,0,0,0,.042-.179V17.568h6.788a1.2,1.2,0,0,0,1.2-1.2C19.165,13.816,17.269,11.808,14.874,10.694Z" transform="translate(18.069) rotate(45)"/></svg>