<svg xmlns="http://www.w3.org/2000/svg" width="20" height="20" viewBox="0 0 20 20"><defs><style>.a{fill:#43c8b1;}</style></defs><path class="a" d="M2.045,11.25a7.616,7.616,0,0,1,7.72-7.507,7.734,7.734,0,0,1,7.143,4.62L18.1,7.881a8.978,8.978,0,0,0-7.038-5.294V1.25H11.7A1.269,1.269,0,0,0,12.992,0L7.841.037a.133.133,0,0,1,0-.037H6.553A1.269,1.269,0,0,0,7.841,1.25h.644V2.6A8.791,8.791,0,0,0,.93,12.568,8.934,8.934,0,0,0,9.773,20V18.75A7.616,7.616,0,0,1,2.045,11.25Z" transform="translate(-0.826)"/><path class="a" d="M208.206,176h-1.075v3.762a.538.538,0,0,0,.156.382l1.613,1.612.758-.758-1.451-1.457Z" transform="translate(-198.846 -168.641)"/><path class="a" d="M294.076,277.5v-1.736a3.225,3.225,0,0,0-2.687-3.177V272h-1.075v.586a3.225,3.225,0,0,0-2.687,3.177V277.5a1.016,1.016,0,0,0-.538.951l1.075-.054a.081.081,0,0,1-.081.054h1.252a1.613,1.613,0,0,0,3.026,0h2.252A1.016,1.016,0,0,0,294.076,277.5ZM293,277.375h-4.3v-1.612a2.15,2.15,0,0,1,4.3,0Z" transform="translate(-274.615 -260.063)"/></svg>