<svg xmlns="http://www.w3.org/2000/svg" width="32" height="32" viewBox="0 0 32 32"><defs><style>.a{fill:#cac6d4;}</style></defs><path class="a" d="M29.692,0H2.308A2.308,2.308,0,0,0,0,2.308V29.692A2.308,2.308,0,0,0,2.308,32H29.692A2.308,2.308,0,0,0,32,29.692V2.308A2.308,2.308,0,0,0,29.692,0ZM23.305,12.475q.011.236.01.475A10.378,10.378,0,0,1,12.867,23.4h0a10.4,10.4,0,0,1-5.629-1.65,7.47,7.47,0,0,0,.876.051,7.369,7.369,0,0,0,4.561-1.572,3.677,3.677,0,0,1-3.431-2.551,3.66,3.66,0,0,0,1.659-.063,3.673,3.673,0,0,1-2.946-3.6c0-.017,0-.031,0-.047a3.647,3.647,0,0,0,1.663.459,3.676,3.676,0,0,1-1.137-4.9,10.427,10.427,0,0,0,7.57,3.837,3.674,3.674,0,0,1,6.258-3.349,7.366,7.366,0,0,0,2.332-.891,3.687,3.687,0,0,1-1.615,2.031,7.324,7.324,0,0,0,2.109-.578A7.463,7.463,0,0,1,23.305,12.475Zm0,0"/></svg>