<svg xmlns="http://www.w3.org/2000/svg" width="32" height="32" viewBox="0 0 32 32"><defs><style>.a{fill:#cac6d4;}</style></defs><path class="a" d="M142.077,124.469a7.97,7.97,0,0,0-8.006,7.912,7.83,7.83,0,0,0,1.224,4.211l.19.3-.809,2.92,3.029-.786.292.171a8.058,8.058,0,0,0,4.073,1.1h0a7.97,7.97,0,0,0,8-7.913,7.821,7.821,0,0,0-2.342-5.6A8,8,0,0,0,142.077,124.469Zm4.707,11.314a2.479,2.479,0,0,1-1.624,1.131,3.337,3.337,0,0,1-1.515-.094,13.988,13.988,0,0,1-1.372-.5,10.678,10.678,0,0,1-4.11-3.592,4.6,4.6,0,0,1-.982-2.461,2.655,2.655,0,0,1,.842-1.984.889.889,0,0,1,.642-.3c.16,0,.321,0,.461.008s.346-.056.541.408.682,1.647.742,1.766a.435.435,0,0,1,.02.417,8.607,8.607,0,0,1-.6.814c-.106.131-.246.247-.106.486a7.186,7.186,0,0,0,1.338,1.648A6.593,6.593,0,0,0,143,134.711c.24.119.381.1.521-.059s.6-.695.762-.933.321-.2.541-.119,1.4.655,1.644.774.4.179.461.278A1.964,1.964,0,0,1,146.784,135.783Zm0,0" transform="translate(-125.736 -116.647)"/><path class="a" d="M29.692,0H2.308A2.308,2.308,0,0,0,0,2.308V29.692A2.308,2.308,0,0,0,2.308,32H29.692A2.308,2.308,0,0,0,32,29.692V2.308A2.308,2.308,0,0,0,29.692,0ZM16.339,25.316h0a9.572,9.572,0,0,1-4.576-1.165L6.682,25.482l1.359-4.961a9.577,9.577,0,1,1,8.3,4.795Zm0,0"/></svg>