<svg xmlns="http://www.w3.org/2000/svg" width="32" height="32" viewBox="0 0 32 32"><defs><style>.a{fill:#fc0a00;}</style></defs><path class="a" d="M224.113,214.078l5.243-3.02-5.243-3.02Zm0,0" transform="translate(-210.126 -195.059)"/><path class="a" d="M29.692,0H2.308A2.308,2.308,0,0,0,0,2.308V29.692A2.308,2.308,0,0,0,2.308,32H29.692A2.308,2.308,0,0,0,32,29.692V2.308A2.308,2.308,0,0,0,29.692,0ZM26,16.016a26.408,26.408,0,0,1-.412,4.81,2.505,2.505,0,0,1-1.762,1.762C22.259,23,16,23,16,23s-6.242,0-7.823-.428a2.506,2.506,0,0,1-1.762-1.762A26.292,26.292,0,0,1,6,16a26.39,26.39,0,0,1,.412-4.809A2.556,2.556,0,0,1,8.177,9.412C9.741,9,16,9,16,9s6.259,0,7.823.428a2.506,2.506,0,0,1,1.762,1.762A25.06,25.06,0,0,1,26,16.016Zm0,0"/></svg>